<svg width="63" height="86" viewBox="0 0 63 86" fill="none" xmlns="http://www.w3.org/2000/svg">
<path d="M31.146 0C13.972 0 0 13.972 0 31.1458C0 52.4591 27.8726 83.7481 29.0593 85.0697C30.1739 86.3112 32.12 86.309 33.2327 85.0697C34.4194 83.7481 62.292 52.4591 62.292 31.1458C62.2916 13.972 48.3198 0 31.146 0ZM31.146 46.8161C22.5053 46.8161 15.4758 39.7865 15.4758 31.1458C15.4758 22.5051 22.5055 15.4757 31.146 15.4757C39.7865 15.4757 46.816 22.5053 46.816 31.146C46.816 39.7866 39.7865 46.8161 31.146 46.8161Z" fill="#19E7E7"/>
</svg>
