<svg width="63" height="86" viewBox="0 0 63 86" fill="none" xmlns="http://www.w3.org/2000/svg">
<path d="M31.281 0C14.107 0 0.13504 13.972 0.13504 31.1458C0.13504 52.4591 28.0076 83.7481 29.1943 85.0697C30.309 86.3112 32.2551 86.309 33.3677 85.0697C34.5544 83.7481 62.427 52.4591 62.427 31.1458C62.4267 13.972 48.4548 0 31.281 0ZM31.281 46.8161C22.6404 46.8161 15.6109 39.7865 15.6109 31.1458C15.6109 22.5051 22.6405 15.4757 31.281 15.4757C39.9215 15.4757 46.951 22.5053 46.951 31.146C46.951 39.7866 39.9215 46.8161 31.281 46.8161Z" fill="#B75B33"/>
</svg>
