<svg width="42" height="42" viewBox="0 0 42 42" fill="none" xmlns="http://www.w3.org/2000/svg">
<path d="M12.2311 24.2859L11.1346 28.3792L7.12702 28.464C5.92934 26.2425 5.25 23.7009 5.25 21.0001C5.25 18.3883 5.88517 15.9254 7.01105 13.7568H7.01191L10.5798 14.4109L12.1427 17.9573C11.8156 18.911 11.6373 19.9348 11.6373 21.0001C11.6374 22.1562 11.8469 23.2639 12.2311 24.2859Z" fill="#FBBB00"/>
<path d="M36.4749 18.0577C36.6557 19.0104 36.7501 19.9944 36.7501 21C36.7501 22.1276 36.6315 23.2275 36.4057 24.2885C35.6389 27.8988 33.6356 31.0514 30.8603 33.2824L30.8594 33.2815L26.3655 33.0522L25.7295 29.0818C27.571 28.0018 29.0102 26.3117 29.7683 24.2885H21.3463V18.0577H29.8911H36.4749Z" fill="#518EF8"/>
<path d="M30.8594 33.2816L30.8602 33.2825C28.1611 35.452 24.7324 36.75 21.0001 36.75C15.0021 36.75 9.78729 33.3976 7.12708 28.464L12.2311 24.2859C13.5612 27.8357 16.9855 30.3627 21.0001 30.3627C22.7256 30.3627 24.3422 29.8962 25.7294 29.0819L30.8594 33.2816Z" fill="#28B446"/>
<path d="M31.053 8.87595L25.9507 13.0531C24.515 12.1558 22.818 11.6374 20.9998 11.6374C16.8944 11.6374 13.406 14.2802 12.1426 17.9573L7.01173 13.7567H7.01086C9.63213 8.70288 14.9127 5.25 20.9998 5.25C24.8213 5.25 28.3253 6.61127 31.053 8.87595Z" fill="#F14336"/>
</svg>
